<svg xmlns="http://www.w3.org/2000/svg" width="305.232" height="170.053" viewBox="0 0 305.232 170.053">
  <g id="Ebene_2" data-name="Ebene 2" transform="translate(0 0.08)">
    <g id="Ebene_1" data-name="Ebene 1" transform="translate(0 -0.08)">
      <path id="Pfad_1" data-name="Pfad 1" d="M132.22,109.725a57.908,57.908,0,0,1,6.257-.961c2.1-.2,4.2-.435,6.318-.557,1.053-.069,2.114-.1,3.174-.145s2.114-.053,3.167-.061c2.121,0,4.235,0,6.356.122l1.587.076c.527,0,1.061.046,1.587.084l3.167.2c2.06.137,4.144.244,6.219.351s4.159.183,6.242.221,4.182,0,6.3,0v.206a34.268,34.268,0,0,1-6.25,1.335,52.584,52.584,0,0,1-6.379.427,47.056,47.056,0,0,1-6.387-.382l-3.121-.427c-1.038-.145-2.083-.221-3.121-.336q-3.121-.275-6.265-.412c-1.045-.053-2.091-.076-3.144-.114s-2.091-.046-3.144,0a103.335,103.335,0,0,0-12.568.656Z" transform="translate(-31.326 -25.526)" fill="#c8b6ad"/>
      <path id="Pfad_2" data-name="Pfad 2" d="M182.447,89.241c-2.64.137-5.258.206-7.875.214h-1.961c-.656,0-1.312,0-1.961-.038H169.3c.069-1.236.114-2.465.145-3.7.061-2.236.069-4.464.046-6.7s-.1-4.456-.237-6.685c0-.549-.069-1.106-.114-1.664l-.053-.839v-.42a1.434,1.434,0,0,0-.053-.473,6.008,6.008,0,0,0-.214-.969,2.885,2.885,0,0,0-.572-1.068,1.954,1.954,0,0,0-.626-.458,1.7,1.7,0,0,0-.763-.16h-.114l-.771-4.319-.107-.656-.053-.336-.069-.351a5.119,5.119,0,0,0-.488-1.442,1.991,1.991,0,0,0-.618-.763,1.427,1.427,0,0,0-.542-.221,1.381,1.381,0,0,0-.565,0,1.824,1.824,0,0,0-.626.29,14.6,14.6,0,0,0-.618-1.984,17.284,17.284,0,0,0-1.328-2.724,19.831,19.831,0,0,0-1.747-2.449,15.924,15.924,0,0,0-2.129-2.114l-.13.16A16.613,16.613,0,0,1,158.86,51.6a18.976,18.976,0,0,1,1.526,2.5,17.04,17.04,0,0,1,1.084,2.686,15.656,15.656,0,0,1,.588,2.816l.145,1.175.8-.923a1.725,1.725,0,0,1,.763-.542.183.183,0,0,1,.168.046,1.037,1.037,0,0,1,.2.321,4.479,4.479,0,0,1,.29,1.114.881.881,0,0,0,.038.313l.038.328.069.664.6,5.342,1.3.565h.145a.367.367,0,0,1,.145,0h0v.046a1.526,1.526,0,0,1,.16.42,4.327,4.327,0,0,1,.092.672q0,.183,0,.366v2.915c0,2.228.145,4.456.29,6.685s.336,4.449.565,6.669c.13,1.206.267,2.411.427,3.625-.572,0-1.152-.046-1.725-.084-2.61-.114-5.219-.259-7.806-.443-.633-.053-1.313-.092-1.976-.137l-1.984-.13c-.664-.061-1.328-.084-1.992-.107l-1.488-.061A19.42,19.42,0,0,0,156.1,85.12l1.618,1.618a.4.4,0,0,0,.557,0l.252-.252a.4.4,0,0,0,0-.557L156.9,84.311a19.283,19.283,0,0,0,3.579-5.342l2.114.878a.389.389,0,0,0,.511-.221l.069-.16.061-.16a.389.389,0,0,0-.206-.519l-1.946-.923a19.222,19.222,0,0,0,1.251-6.311h2.289a.4.4,0,0,0,.4-.4,1.235,1.235,0,0,1,0-.168,1.35,1.35,0,0,1,0-.176.4.4,0,0,0-.4-.4h-2.289a19.222,19.222,0,0,0-1.251-6.311l2.106-.87a.389.389,0,0,0,.183-.511l-.061-.16-.069-.16a.389.389,0,0,0-.511-.221l-2.114.878a19.4,19.4,0,0,0-3.579-5.342l1.625-1.618a.4.4,0,0,0,0-.557l-.252-.252a.4.4,0,0,0-.557,0l-1.618,1.618a19.512,19.512,0,0,0-5.342-3.579l.87-2.106a.389.389,0,0,0-.214-.511l-.328-.137a.389.389,0,0,0-.511.214l-.87,2.106a19.306,19.306,0,0,0-6.311-1.267V49.339a.389.389,0,0,0-.4-.389h-.366a.389.389,0,0,0-.4.389v2.289a19.222,19.222,0,0,0-6.3,1.259l-.878-2.106a.389.389,0,0,0-.511-.214l-.328.137a.4.4,0,0,0-.214.511l.87,2.106a19.512,19.512,0,0,0-5.342,3.579l-1.618-1.618a.389.389,0,0,0-.557,0c-.038.038-.084.076-.122.122l-.122.114a.4.4,0,0,0,0,.565l1.625,1.618a19.4,19.4,0,0,0-3.579,5.342l-2.114-.87a.389.389,0,0,0-.511.206l-.137.336a.4.4,0,0,0,.214.511l2.106.87a19.221,19.221,0,0,0-1.251,6.311h-2.289a.389.389,0,0,0-.4.389v.359a.389.389,0,0,0,.4.389H123.6a19.221,19.221,0,0,0,1.251,6.311l-2.083.893a.4.4,0,0,0-.214.519l.137.328a.4.4,0,0,0,.511.214l2.114-.878a19.284,19.284,0,0,0,3.579,5.342L127.269,85.9a.389.389,0,0,0,0,.557l.122.122.122.122a.389.389,0,0,0,.557,0l1.618-1.618a19.512,19.512,0,0,0,5.342,3.579v.084h.076l-1.976.191-1.969.237c-.656.069-1.313.168-1.969.259s-1.3.183-1.961.3a74.884,74.884,0,0,0-7.76,1.61l.053.206a103.717,103.717,0,0,1,15.613-1.709l.984-.046h.984l1.969-.046H143l1.969.053c.656,0,1.312,0,1.961.061l1.961.107.984.053c.328,0,.656.046.977.076l1.961.168c.649.053,1.3.107,1.953.191l1.946.244,1.961.244a64.922,64.922,0,0,0,7.974.481h1.992a17.509,17.509,0,0,0,2-.076c.664-.076,1.328-.076,1.992-.137l.992-.084.992-.114a46.818,46.818,0,0,0,7.829-1.58ZM144,87.142V73.468l9.645,9.645A16.025,16.025,0,0,1,144,87.142Zm11.1-5.456-9.653-9.676H159.1a16.1,16.1,0,0,1-4,9.653Zm4-11.706H145.453l9.653-9.653a16.1,16.1,0,0,1,4,9.63ZM144,54.871a16.132,16.132,0,0,1,9.645,4.006L144,68.508Zm-1.03,14.5a.682.682,0,1,1,0-.023Zm-1.03-14.5V68.531L132.3,58.855a16.131,16.131,0,0,1,9.645-4.006Zm-11.1,5.456,9.638,9.63H126.841a16.1,16.1,0,0,1,4-9.653Zm-4,11.706h13.636l-9.638,9.63a16.1,16.1,0,0,1-4-9.653Zm5.456,11.1,9.645-9.645V87.142a16.025,16.025,0,0,1-9.645-4.029Z" transform="translate(-28.305 -11.536)" fill="#c8b6ad"/>
      <path id="Pfad_3" data-name="Pfad 3" d="M252.458,36.174a9.493,9.493,0,0,0-5.12-4.64l2.61-1.9-.984-.374-.275-.122a2.563,2.563,0,0,0-.939-.3c-1.015-.069-2.053-.069-3.052-.076h-3.35a1.664,1.664,0,0,1-.58-.191.351.351,0,0,1-.229-.313.519.519,0,0,1,.061-.237,1.664,1.664,0,0,1,1.122-.969,5.189,5.189,0,0,1,1.2-.275,5.807,5.807,0,0,0,3.861-1.824,14.354,14.354,0,0,0,3.3-5,2.6,2.6,0,0,0,.092-.29l.053-.2.305-1.068L248,19.317a21.956,21.956,0,0,0,.588-4.838c0-.229,0-.465,0-.7a11.561,11.561,0,0,1,3.586-7.822l.443-.443-.763-.633-.259.046h-.122a12.888,12.888,0,0,0-6.509,1.2l-.61.29a11.355,11.355,0,0,1,1.663-1.854l1.152-1.015h-1.526a15.422,15.422,0,0,0-6.563,1.526,25.814,25.814,0,0,0-4.853,2.915l-.084-2.663-.817.42h0a1.6,1.6,0,0,0-.252.13l-.107.061c-.229.137-.465.282-.694.443-2.648,1.816-3.915,3.892-3.976,6.517a6.106,6.106,0,0,1-.252,1.381h0a5.235,5.235,0,0,1-.389,1.045.542.542,0,0,1-.565.305c-.107-.046-.175-.076-.084-.542a3.993,3.993,0,0,1,.267-.961,5.227,5.227,0,0,0,0-4.006,14.3,14.3,0,0,1-.374-1.4c-.046-.229-.1-.465-.16-.7l-.168-.656-.618.275a8.661,8.661,0,0,0-2.678,1.839,13.217,13.217,0,0,1-2.846-8.31V-.08l-.961.763c-4.922,4.052-6.921,8.814-6.1,14.544a3.417,3.417,0,0,1-3.052-1.526l-.763-.923-.214,1.19c-.038.252-.084.488-.13.71-.092.473-.183.916-.229,1.366a6.372,6.372,0,0,0,2.175,5.9c.923.763,1.633,1.4,2.289,1.976a5.232,5.232,0,0,1,.641.656c.145.2.183.244-.069.5a2.045,2.045,0,0,1-2.4.259,4.617,4.617,0,0,1-2.091-2.518l-.7-1.686L207.8,22.713c-.382.6-.71,1.122-1.061,1.641l-.061.084c-1.282.046-2.884-.267-3.48-1.885a.6.6,0,0,0-.542-.389l-.473-.084-.153.473a9.393,9.393,0,0,0-.046,5.2,8.7,8.7,0,0,0,4.533,5.342,5.983,5.983,0,0,1-2.259,1.229l-1.29.359,1.229.763a17.383,17.383,0,0,0,3,1.526,7.631,7.631,0,0,0,6.654-.382c.61-.351,1.213-.763,1.793-1.091q.511-.336,1.03-.641l.9-.527.5-.3s.259-.145.42,0a21.08,21.08,0,0,1-1.58,1.4,19.618,19.618,0,0,1-7.249,3.686,17.054,17.054,0,0,1-4.021.58,14.765,14.765,0,0,1-4.006-.473,14.094,14.094,0,0,1-6.868-4.09,17.124,17.124,0,0,1-2.411-3.289,22.125,22.125,0,0,1-1.686-3.754,32.811,32.811,0,0,1-1.61-8.173,58.759,58.759,0,0,1,0-8.44,46.236,46.236,0,0,0-.664,8.47,36.233,36.233,0,0,0,.336,4.266l.168,1.068.214,1.053c.069.351.175.694.259,1.045s.191.694.29,1.038.2.618.305.931c0,0,.61,1.526,1.1,3.144.038.145.084.29.13.443a52.112,52.112,0,0,1,1.465,5.967c.206,1.106.359,2.228.481,3.35a5.342,5.342,0,0,0-4.578,2.961,5.367,5.367,0,0,0-10.546.977v.351a5.258,5.258,0,0,0-1.839-.847V22.82L146.047.042,116.119,22.82v8.394H99.11v1.374h46.334v2.648h-37.2v2.511h38.574V35.907a8.394,8.394,0,0,1,.817.641,8.045,8.045,0,0,1,.763.763l.359.389.336.4a3.445,3.445,0,0,1,.3.443,4.39,4.39,0,0,1,.252.458,3.267,3.267,0,0,0,.282.435,2.61,2.61,0,0,0,.321.4l.374.374a5.042,5.042,0,0,0,.42.374,6.1,6.1,0,0,0,1.03.763l.191-.084a3.54,3.54,0,0,0,.061-1.32,5.979,5.979,0,0,0-.137-.618.912.912,0,0,0-.1-.3l-.13-.282a3.412,3.412,0,0,0-.275-.61,4.858,4.858,0,0,0-.435-.45,3.061,3.061,0,0,0-.237-.206l-.244-.191-.252-.191a2.961,2.961,0,0,0-.237-.2l-.5-.359c-.168-.122-.343-.221-.511-.336a10.358,10.358,0,0,0-1.091-.542,7.95,7.95,0,0,0-1.351-.435V31.222H118.637V24.064l27.417-20.87,27.57,20.87v21.58a5.342,5.342,0,0,0-2.289,9.241,5.342,5.342,0,0,0,1.274,10.462h.374a5.159,5.159,0,0,0,1.427-.2,6.385,6.385,0,0,0-.145.931,5.342,5.342,0,0,0,4.815,5.708,4.68,4.68,0,0,0-.092.656,5.342,5.342,0,0,0,4.975,5.723h.527a5.38,5.38,0,0,0,4.952,4.693h.382a5.273,5.273,0,0,0,1.1-.122,5.417,5.417,0,0,0-.832,2.511,5.342,5.342,0,0,0,.359,2.335,5.34,5.34,0,0,0,1.541,10.294v.336a5.342,5.342,0,0,0,4.975,5.723,3.186,3.186,0,0,0,.382,0,5.342,5.342,0,0,0,3.724-9.218,5.265,5.265,0,0,0,3.251-1.3,5.341,5.341,0,0,0,.527-7.57,5.265,5.265,0,0,0-2.343-1.526,5.341,5.341,0,0,0,2.228-3.976,5.662,5.662,0,0,0-.053-1.2,5.341,5.341,0,0,0,2.068.572h.382a5.342,5.342,0,0,0,5.342-4.991,5.419,5.419,0,0,0-.069-1.32,14.682,14.682,0,0,0,5.555,2.4V85.95c0,.1.053,9.523-4.441,14.071a8.012,8.012,0,0,1-5.906,2.4v1.595h26.632v-1.595a8.02,8.02,0,0,1-5.906-2.4c-4.495-4.578-4.441-13.972-4.441-14.079V75.877a14.842,14.842,0,0,0,10.324-21.16L234,54.274H212.725a5.143,5.143,0,0,0,.588-2.083,5.341,5.341,0,0,0-3.861-5.525,5.362,5.362,0,0,0-10.462.16l-.305-.069a5.342,5.342,0,0,0-4.273-4.433A27.471,27.471,0,0,0,194,38.616a28.526,28.526,0,0,0-.839-3.388c.214.267.427.527.656.763a15.2,15.2,0,0,0,7.463,4.556,16.872,16.872,0,0,0,8.714-.183,20.55,20.55,0,0,0,4.037-1.671c.32-.168.626-.366.939-.549s.61-.4.916-.6l.87-.649c.275-.229.565-.45.839-.687.412-.359.763-.763,1.183-1.114l-.488.969c-.588,1.152-1.2,2.35-1.747,3.541a9.813,9.813,0,0,0-.29,7.631,6.807,6.807,0,0,0,3.052,3.815l1,.58-.145-1.152a7.906,7.906,0,0,1-.053-2.129c2.862,2.5,6.425,3.411,11.408,2.945l.862-.084-.824-1.633A15.191,15.191,0,0,1,229.8,45.3a3.815,3.815,0,0,1,0-1.526c.084-.359.191-.42.191-.427s.183,0,.488.244c.168.122.321.252.481.382a6.493,6.493,0,0,0,1.61,1.091,11.217,11.217,0,0,0,9.317-.29,4.007,4.007,0,0,0,.5-.305l.191-.137.839-.542-.893-.443-.473-.237c-.305-.145-.6-.29-.878-.443.649-.244,1.328-.458,1.992-.664h.046a25.472,25.472,0,0,0,7.669-3.96l.71-.549.313-.252.763-.679ZM188.932,55.083a3.946,3.946,0,0,1,.908-.114h.267a3.77,3.77,0,0,1,2.968,1.824,4.287,4.287,0,0,0-.473.359,5.4,5.4,0,0,0-1.725,5.2,3.853,3.853,0,0,1-1.3.137,3.754,3.754,0,0,1-3.1-5.448,5.227,5.227,0,0,0,2.449-1.961Zm.9-3.441a5.342,5.342,0,0,0,2.556,1.213,5.343,5.343,0,0,0,.427,1.435,5.341,5.341,0,0,0-2.594-.893H189.7a5.476,5.476,0,0,0,.153-.939,6.869,6.869,0,0,0-.023-.816Zm14.338,4.044a5.265,5.265,0,0,0,2.526,1.389,14.9,14.9,0,0,0-.6,3.38,5.4,5.4,0,0,0-1.32-.259,5.342,5.342,0,0,0-3.289.832,5.288,5.288,0,0,0-.7-2.449A3.815,3.815,0,0,1,204.171,55.686Zm-1.625-1.259a4.9,4.9,0,0,0,.305-.809,6.406,6.406,0,0,0,.267.626,2.2,2.2,0,0,0-.572.145Zm1.847,7.348h.267a3.579,3.579,0,0,1,1.427.389,14.9,14.9,0,0,0,1.4,5.517,3.762,3.762,0,1,1-3.052-5.921Zm-3.007,11.164a3.77,3.77,0,1,1-3.754-4.029h.259a3.77,3.77,0,0,1,3.495,3.991Zm-5.921,8.989h.259a3.815,3.815,0,1,1-.259,0ZM194.3,66.293a5.4,5.4,0,0,0,1.45.313h.382a5.273,5.273,0,0,0,2.907-.862,5.3,5.3,0,0,0,.42,1.885,5.4,5.4,0,0,0-1.45-.313,5.342,5.342,0,0,0-3.4.931,5.418,5.418,0,0,0-.305-1.992Zm5.586-4.777a3.762,3.762,0,1,1-3.77-4.037h.275a3.762,3.762,0,0,1,3.495,4.021Zm-14.575.114a5.342,5.342,0,0,0,1.595,1.625,5.448,5.448,0,0,0-2.121,1.847,5.342,5.342,0,0,0-.725-1.587,5.2,5.2,0,0,0,1.251-1.923Zm-1.251-1.664a3.77,3.77,0,1,1-3.762-4.037h.267a3.77,3.77,0,0,1,3.495,4Zm1.427,7.86a3.77,3.77,0,0,1,3.754-3.51h.267a3.77,3.77,0,1,1-3.106,6.227,3.709,3.709,0,0,1-.916-2.755Zm2.778-15.468a3.777,3.777,0,0,1-4.021,3.495h-.229a5.387,5.387,0,0,0-2.4-1.335,3.724,3.724,0,0,1-.862-2.663,3.77,3.77,0,0,1,3.747-3.564h.267a3.77,3.77,0,0,1,3.5,4.029ZM179.592,46.3a3.754,3.754,0,0,1,3.754-3.5h.267a3.77,3.77,0,0,1,3.495,4.021,4.436,4.436,0,0,1-.084.542,5.227,5.227,0,0,0-2.144-.626,5.342,5.342,0,0,0-4.578,2.03,3.746,3.746,0,0,1-.71-2.5Zm-.191,7.463a5.335,5.335,0,0,0,.244.61,5.211,5.211,0,0,0-.847.176,5.5,5.5,0,0,0,.6-.824Zm-8.287-3.129a3.77,3.77,0,0,1,3.754-3.5h.267a3.77,3.77,0,1,1-4.021,3.495ZM172.7,63.79a3.77,3.77,0,0,1,.259-7.532h.267a3.739,3.739,0,0,1,2.289.992,5.386,5.386,0,0,0,.237,5.3,3.762,3.762,0,0,1-3.052,1.2Zm6.929,6.479h-.29a3.77,3.77,0,0,1-2.427-6.4,5.341,5.341,0,0,0,3,1.152h.389a5.273,5.273,0,0,0,2.457-.6,3.816,3.816,0,0,1,.6,2.289,4.487,4.487,0,0,1-.16.847,5.4,5.4,0,0,0-2.4,1.2,5.518,5.518,0,0,0-1.167,1.48Zm4.922,6.349a3.482,3.482,0,0,1-.488,0,3.77,3.77,0,0,1-.092-7.509,5.342,5.342,0,0,0,3.052,3.869,5.342,5.342,0,0,0-2.472,3.6Zm5.021,4.7a3.77,3.77,0,0,1,.259-7.524h.267a3.777,3.777,0,0,1,3.495,4.021h0a3.777,3.777,0,0,1-4.021,3.495Zm2.61,15.078a3.762,3.762,0,0,1-3.495-4.082,3.815,3.815,0,0,1,2.594-3.319l.13.16a5.342,5.342,0,0,0,3.678,1.831h.763a3.762,3.762,0,0,1-3.67,5.342Zm8.905,2.556a3.77,3.77,0,0,1-7.516-.527,3.468,3.468,0,0,1,.084-.565,5.387,5.387,0,0,0,3.64-2.938h.3a3.815,3.815,0,0,1,3.495,3.991Zm2.541-11.98a3.762,3.762,0,0,1-.374,5.342,3.686,3.686,0,0,1-2.732.916,3.731,3.731,0,0,1-2.579-1.282c-.076-.092-.153-.183-.221-.282a5.549,5.549,0,0,0-.282-1,5.342,5.342,0,0,0,3.373-4.578c0-.122,0-.237,0-.351h.221a3.739,3.739,0,0,1,2.594,1.236Zm-.5-6.7a3.815,3.815,0,0,1-2.694,3.35,5.342,5.342,0,0,0-4.579-3.327h-.229a4.276,4.276,0,0,1,0-.542,3.709,3.709,0,0,1,.687-1.915,5.738,5.738,0,0,0,.961.153h.374a5.342,5.342,0,0,0,3.5-1.312,3.815,3.815,0,0,1,1.976,3.6Zm-.321-9.058a6.209,6.209,0,0,0-.237-.664,4.578,4.578,0,0,0,.633.183,6.038,6.038,0,0,0-.4.481Zm8.058,3.464A3.77,3.77,0,1,1,207.1,70.65h.282A3.77,3.77,0,0,1,210.863,74.679Zm16.36,26.525a9.455,9.455,0,0,0,1.526,1.29H213.1a10.141,10.141,0,0,0,1.526-1.29c4.96-5.021,4.9-14.788,4.9-15.193v-9.92c.45,0,.908.061,1.366.061a10.172,10.172,0,0,0,1.366-.061v9.92a31.849,31.849,0,0,0,.557,5.654C223.622,95.87,225.087,99.082,227.223,101.2Zm5.8-45.327a12.973,12.973,0,0,1,1.175,5.456,13.247,13.247,0,1,1-26.494,0,13.109,13.109,0,0,1,1.175-5.456Zm-24.838-7.822a3.77,3.77,0,0,1,3.495,4.021,3.678,3.678,0,0,1-.908,2.19h-2.93l-.221.443c-.13.267-.259.534-.374.809a3.762,3.762,0,0,1,.679-7.471Zm-6.463-2.976a3.747,3.747,0,0,1,2.472-.923h.267a3.762,3.762,0,0,1,3.2,2.289,5.38,5.38,0,0,0-4.876,3.815,5.4,5.4,0,0,0-2.289-2.846,3.754,3.754,0,0,1,1.229-2.327Zm-4.006,3.19h.259a3.815,3.815,0,1,1-.259,0Zm-4.38-4.472h.267a3.709,3.709,0,0,1,2.579,1.29,3.755,3.755,0,0,1,.832,1.625,5.38,5.38,0,0,0-4.578,4.495,3.77,3.77,0,0,1,.923-7.417Zm22.732-12.255a26.044,26.044,0,0,1-7.516-1.747,9.432,9.432,0,0,1-4.662-4.029l-.092-.137a1.658,1.658,0,0,0-.259-.122c.336.58.572,1.061.878,1.48a11.08,11.08,0,0,0,5.059,3.77c1.45.58,2.961,1.023,4.5,1.526-1.908,1.465-4.243,1.847-6.494,2.541h.534a18.314,18.314,0,0,0,5.342-1.427c.58-.259,1.183-.458,1.778-.664a3.747,3.747,0,0,1,2.717.122,1.221,1.221,0,0,0-.343.145l-.473.275c-.328.191-.626.359-.923.542l-1.1.656c-.572.359-1.167.763-1.755,1.068a6.44,6.44,0,0,1-5.693.305,12.667,12.667,0,0,1-1.839-.885,6.913,6.913,0,0,0,2.137-1.526l.542-.58-.717-.328a7.84,7.84,0,0,1-4.67-4.983,8.715,8.715,0,0,1-.237-3.251,4.785,4.785,0,0,0,4,1.4,1.221,1.221,0,0,0,.855-.588c.305-.458.6-.923.916-1.419a5.647,5.647,0,0,0,2.48,2.778,3.144,3.144,0,0,0,3.724-.465A1.381,1.381,0,0,0,214.93,24a5.843,5.843,0,0,0-.763-.824l-2.289-1.992a5.227,5.227,0,0,1-1.786-4.9c.038-.305.092-.6.153-.923a4.151,4.151,0,0,0,3.915.992l.527-.122-.092-.534c-.893-5.174.649-9.516,4.708-13.247a15.063,15.063,0,0,0,3.472,8.348l.443.572.45-.557a7.181,7.181,0,0,1,2.114-1.755,13.274,13.274,0,0,0,.4,1.526,4.014,4.014,0,0,1,.038,3.159,5.343,5.343,0,0,0-.351,1.221,1.526,1.526,0,0,0,.717,1.793,1.641,1.641,0,0,0,2.068-.832,6.432,6.432,0,0,0,.481-1.274v-.038a7.176,7.176,0,0,0,.29-1.633c.053-2.228,1.16-4.014,3.472-5.609l.16-.107.061,2.289.916.16.2-.176a23.655,23.655,0,0,1,5.342-3.35,14.43,14.43,0,0,1,4.578-1.351,13.773,13.773,0,0,0-1.877,2.77l-.817,1.526,1.58-.763c.275-.137.542-.267.763-.4.542-.275,1.053-.534,1.572-.763a12,12,0,0,1,5.158-1.122c-.114.13-.221.259-.32.4-.931.641-1.87,1.274-2.77,1.969a81.166,81.166,0,0,0-9.767,9.157c-2.167,2.327-4.289,4.693-6.486,6.99-1.03,1.076-2.19,2.037-3.289,3.052l-.114-.084c.076-.16.176-.32.244-.488.885-2.152,1.763-4.311,2.648-6.456a30.875,30.875,0,0,1,11.1-14.079c.046,0,.076-.069.076-.176-.382.237-.763.458-1.137.71s-.763.542-1.137.832a32.822,32.822,0,0,0-10.065,14.109,27.2,27.2,0,0,1-2.747,5.57,17.26,17.26,0,0,1-6.066,5.2.626.626,0,0,1-.168.046,32.313,32.313,0,0,0,.832-3.815,18.45,18.45,0,0,0,0-4.3,10.988,10.988,0,0,1,.191-3.648c.366-1.87.763-3.731,1.274-5.57.3-1.129.763-2.221,1.114-3.327a3.053,3.053,0,0,0,.16-.511,33.523,33.523,0,0,0-3.495,9.806,30.523,30.523,0,0,1-2.335-16.956c-.076.282-.168.565-.229.855a23.281,23.281,0,0,0,.13,10.21c.618,2.8,1.45,5.555,2.137,8.34a16.7,16.7,0,0,1,.389,3.052,21.305,21.305,0,0,0-5.822-6.982c-.4-.305-.8-.6-1.061-.763.992,1.061,2.152,2.19,3.174,3.426a18.055,18.055,0,0,1,3.251,6.1,3.2,3.2,0,0,1,.076,1.473c-.16.878-.435,1.74-.679,2.671a6.433,6.433,0,0,0-3.571-1.351Zm34.148,5.586a24.419,24.419,0,0,1-7.341,3.762h-.046c-.71.221-1.435.45-2.144.717a1.351,1.351,0,0,0-.809.847c-.13.534.412.992.61,1.106s.382.214.58.313a10.1,10.1,0,0,1-8.073.107,5.28,5.28,0,0,1-1.343-.908c-.168-.137-.336-.275-.511-.4a1.641,1.641,0,0,0-1.572-.4,1.526,1.526,0,0,0-.916,1.244,5.066,5.066,0,0,0,0,1.992,15.941,15.941,0,0,0,1.877,4.578v.061c-4.578.282-7.8-.763-10.355-3.373l-.649-.664-.3.885a6.44,6.44,0,0,0-.313,2.289,5.875,5.875,0,0,1-1.625-2.5,8.669,8.669,0,0,1,.252-6.746c.542-1.175,1.114-2.289,1.725-3.5l.664-1.312a5.937,5.937,0,0,1,.809,5.006,32.721,32.721,0,0,1-1.412,3.388c-.4.916-.8,1.824-1.206,2.739l.183.076c.252-.511.473-1.038.763-1.526s.71-1.007,1.03-1.526c.534-.87,1.038-1.747,1.526-2.61a13.293,13.293,0,0,0,7.73,8.676c-.58-.359-1.175-.687-1.74-1.061a12.011,12.011,0,0,1-4.968-7.5c-.191-.809-.374-1.618-.557-2.427a11.614,11.614,0,0,0-1.763-4.426,9.041,9.041,0,0,1,1.526.13c1.2.336,2.373.763,3.564,1.114.824.252,1.671.458,2.488.725a1.457,1.457,0,0,1,.694.5,15.361,15.361,0,0,0,7.936,6.73,16.024,16.024,0,0,0,2.572.626c-4.037-1.32-7.364-3.51-9.447-7.455a62.185,62.185,0,0,0,21.16.252c-.183.168-.389.328-.6.488Zm.687-.534-.023.015c-5.342.313-10.683.694-16.025-.45a48.471,48.471,0,0,0,8.394-4.258c-.9.427-1.793.885-2.709,1.282a45.783,45.783,0,0,1-7.9,2.663,1.763,1.763,0,0,1-.633,0,35.3,35.3,0,0,1-7.692-1.984,24.006,24.006,0,0,0-2.533-.763c.641-.435,1.3-.855,1.915-1.312,1.435-1.068,2.862-2.137,4.266-3.243a2.892,2.892,0,0,1,1.343-.618,70.417,70.417,0,0,0,12.347-3.266A54.88,54.88,0,0,0,246.8,22.37c-1.8.664-3.586,1.381-5.418,1.969s-3.77,1.114-5.67,1.625a33.317,33.317,0,0,1-5.86.977c.885-.839,1.717-1.526,2.457-2.35,1.77-1.923,3.495-3.892,5.242-5.838A94.806,94.806,0,0,1,249.811,7a12.53,12.53,0,0,0-2.335,6.715c0,.237,0,.481,0,.717a16.429,16.429,0,0,1-.9,5.609l-.481,1.19,2.625-.954a13.063,13.063,0,0,1-2.709,3.861,4.685,4.685,0,0,1-3.113,1.526,6.1,6.1,0,0,0-1.526.328,2.8,2.8,0,0,0-1.793,1.625,1.664,1.664,0,0,0-.145.672,1.45,1.45,0,0,0,.862,1.343,2.625,2.625,0,0,0,1.068.313h3.358c.939,0,1.908,0,2.846.061L245.6,31.443l.267.87.305.084a8.081,8.081,0,0,1,5.09,3.968Z" transform="translate(-23.481 0.08)" fill="#c8b6ad"/>
      <path id="Pfad_4" data-name="Pfad 4" d="M263.6,88.165a10.324,10.324,0,0,0,3.892-3.274,11.673,11.673,0,0,0,.7-1.1c.1-.191.221-.382.313-.58l.267-.6.122-.305a1.293,1.293,0,0,1,.1-.321c.031-.107.122-.42.175-.633a6.142,6.142,0,0,0,.1-.656,4.735,4.735,0,0,0,.053-.656,9.383,9.383,0,0,0-.061-1.312,7.873,7.873,0,0,0-.267-1.274,6.935,6.935,0,0,0-1.175-2.289l-.153.069a15.468,15.468,0,0,1,.061,4.662,4.565,4.565,0,0,1-.092.549,2.318,2.318,0,0,1-.1.549c-.046.183-.084.359-.122.542s-.038.183-.061.275l-.076.267-.153.542c-.061.183-.137.351-.206.527a7.421,7.421,0,0,1-.5,1.023q-.3.485-.641.946a8.119,8.119,0,0,1-.763.862,9.239,9.239,0,0,1-1.8,1.457l-.511.29-.252.145-.267.122-.542.237c-.183.076-.374.13-.565.2a10.872,10.872,0,0,1-2.35.465v.16A10.2,10.2,0,0,0,263.6,88.165Z" transform="translate(-61.299 -17.748)" fill="#c8b6ad"/>
      <path id="Pfad_5" data-name="Pfad 5" d="M111.08,118.54c1.221-.282,2.442-.5,3.67-.679.618-.1,1.236-.191,1.854-.267l.923-.13.923-.107.931-.1.931-.092c.618-.053,1.244-.114,1.862-.153s1.244-.092,1.87-.122l1.87-.084a51.067,51.067,0,0,1,7.486,0,36.033,36.033,0,0,1,7.371,1.412v.183c-1.259.145-2.5.168-3.739.2s-2.472,0-3.709,0c-.61,0-1.229,0-1.847-.053s-1.229-.053-1.839-.1-1.229-.092-1.847-.122-1.229-.069-1.847-.084L124.1,118.2h-5.609q-3.709.069-7.41.443Z" transform="translate(-26.317 -27.58)" fill="#c8b6ad"/>
      <path id="Pfad_6" data-name="Pfad 6" d="M111.546,158.391V156.7c.4-.4,2.2-2.511,4.632.488a5.555,5.555,0,0,1,.717,1.244,7.753,7.753,0,0,1-1.206,7.493c-.153.2-.5.557-.5.557l-.519.527c-4.144,4.136.359,7.158.359,7.158l3.525-3.518c-2.8-1.335-2.289-2.709-1.969-3.281a1.609,1.609,0,0,1,.313-.366l2.205-2.205a22.322,22.322,0,0,0,1.656-1.786c1.03-1.389,3.113-4.754,2.022-8.15-1.427-4.441-6.318-5.128-6.318-5.128l-4.914,4.922h0l-4.914-4.922h0a20.931,20.931,0,0,1-5.342,4.922l3.739,3.739v23.327a24.029,24.029,0,0,1-.7,5.006l13.789,4.189a22.305,22.305,0,0,1,5.509-5.517l-12.087-3.678Z" transform="translate(-23.998 -35.413)" fill="#f9f8f7"/>
      <path id="Pfad_7" data-name="Pfad 7" d="M84.552,158.391v-3.739l-4.914-4.922h0a20.93,20.93,0,0,1-5.342,4.922l3.747,3.739v24.968a15.4,15.4,0,0,0-1.87,1.465h0l-10.218-3.106V154.652l-4.914-4.922h0a20.931,20.931,0,0,1-5.342,4.922l3.739,3.739v23.327a24.028,24.028,0,0,1-.7,5.006l13.781,4.189a22.4,22.4,0,0,1,5.54-5.517l7.837,5.517a19.268,19.268,0,0,1,4.723-4.731l-6.059-4.464Z" transform="translate(-13.197 -35.413)" fill="#f9f8f7"/>
      <path id="Pfad_8" data-name="Pfad 8" d="M227.231,153.087s-.42-17.787,1.7-22.129l-16.788-3.22a168.526,168.526,0,0,0-7.8,27.272v-26.9a100.809,100.809,0,0,0-17.177,26.982s.763-18.932-14.453-26.982c0,0-6.914-3.457-15.162,4.281l-4.578,4.174s-6.578,6.585,4.25,14.094a37.433,37.433,0,0,0,6.624,3.2c1.259.412,2.854.946,4.815,1.526,0,0,8.3,2.869,7.532,7.814a3.089,3.089,0,0,1-2.739,2.48c-1.587.053-3.968-1.221-6.7-6.212a24.6,24.6,0,0,1-5.006,5.174,11.763,11.763,0,0,0,7.753,4.182c9.561.443,9.485-9.683,9.485-9.683-.42-8.928-9.065-11.019-9.065-11.019-8.966-2.4-12.087-6.868-12.087-6.868-3.266-4.578.839-7.509.839-7.509,4.067-2.518,9.378.3,9.378.3,11.622,6.517,13.43,21.053,13.43,21.053,1.1,14.766-12.675,25.838-12.675,25.838l15.391,4.678a22.3,22.3,0,0,1,5.509-5.517l-13.735-4.182a63.831,63.831,0,0,0,11.1-16.025l2.2-4.785a100.679,100.679,0,0,1,8.539-15.735V159.5h-.389s-4.731.046-5.586-.5l-3.449,4.708a13.735,13.735,0,0,1,5.967-1.244h3.449v17.612l7.844,5.517a19.174,19.174,0,0,1,4.716-4.731l-6.051-4.464V163.587l.221-1.106h9.157l3.487-3.495c-1.953.626-11.843.5-11.843.5h-.16c3.747-18.085,6.662-24.831,6.662-24.831l9.218,1.763s-.32.687-.32,16.673v27.005l7.844,5.517a19.33,19.33,0,0,1,4.716-4.731l-6.051-4.464Z" transform="translate(-35.774 -30.109)" fill="#f9f8f7"/>
      <path id="Pfad_9" data-name="Pfad 9" d="M381.593,166.617l12.339-8.226-8.661-8.661-10.179,6.791V181.7a24.037,24.037,0,0,1-.7,5.006l13.781,4.189a22.3,22.3,0,0,1,5.509-5.517L381.593,181.7Zm6.013-5.96-6.013,4.006V154.652Z" transform="translate(-88.701 -35.413)" fill="#f9f8f7"/>
      <path id="Pfad_10" data-name="Pfad 10" d="M360.561,128.74a22.451,22.451,0,0,1-6.5,4.342h0v47.311l7.844,5.517a19.266,19.266,0,0,1,4.723-4.731l-6.059-4.464Z" transform="translate(-83.884 -30.44)" fill="#f9f8f7"/>
      <path id="Pfad_11" data-name="Pfad 11" d="M316.981,147.252V128.74a22.45,22.45,0,0,1-6.5,4.342h0v47.311l7.837,5.517a19.266,19.266,0,0,1,4.723-4.731l-6.059-4.434V150.3c.069,0,5.288.824,12.087,1.229v31.088c0,13.735-11.568,12.354-11.568,12.354l-1.564,1.564s19.642,3.251,19.642-15.407V146.169a141.875,141.875,0,0,1-16.132-1.412Z" transform="translate(-73.559 -30.44)" fill="#f9f8f7"/>
      <path id="Pfad_12" data-name="Pfad 12" d="M288.837,158.391v-3.739l-4.922-4.922h0a20.786,20.786,0,0,1-5.342,4.922l3.747,3.739v24.968a15.056,15.056,0,0,0-1.862,1.465h0l-10.218-3.106V154.652l-4.9-4.922h0A20.931,20.931,0,0,1,260,154.652l3.739,3.739v23.327a24.272,24.272,0,0,1-.694,5.006l13.743,4.189A22.306,22.306,0,0,1,282.3,185.4l7.844,5.517a19.329,19.329,0,0,1,4.716-4.731l-6.051-4.464Z" transform="translate(-61.6 -35.413)" fill="#f9f8f7"/>
      <path id="Pfad_13" data-name="Pfad 13" d="M290.242,137.363l.481.549c10.172-7.631,2.419-13.262,2.419-13.262a20.976,20.976,0,0,1-5.342,4.914S292.813,133.311,290.242,137.363Z" transform="translate(-68.186 -29.471)" fill="#f9f8f7"/>
      <path id="Pfad_14" data-name="Pfad 14" d="M269.644,137.363l.481.549c10.179-7.631,2.427-13.262,2.427-13.262a20.923,20.923,0,0,1-5.342,4.914S272.223,133.311,269.644,137.363Z" transform="translate(-63.308 -29.471)" fill="#f9f8f7"/>
      <path id="Pfad_15" data-name="Pfad 15" d="M19.878,128.372c-8.287-.572-11.7,3.342-11.7,3.342L.832,139.063s-2.564,2.373,1.312,4.388l3.876-3.869C3.335,138.361,5,136.7,5,136.7c2.335-2.648,7.715-2.022,7.715-2.022s11.37,1.328,14.384.763L11.072,151.463a55.4,55.4,0,0,0,19.321,0s-.427,3.609-.214,16.269l.069,1.992c.107,3.564.168,19.474-9.851,26.036,0,0-13.674-6.021-10.317-27.524,0,0,3.716-3.411,5.685-.694l2.923-2.923c-2.442-2.442-6,.107-6,.107L2.533,171.494C2.2,192.936,15,200.392,15,200.392c21.183-9.92,22.221-28.112,22.129-32.515.29-20.947,1.106-23.22,1.106-23.22a64.481,64.481,0,0,1-14.415,0l15.651-15.651C32.66,129.448,19.878,128.372,19.878,128.372Z" transform="translate(0 -30.339)" fill="#f9f8f7"/>
    </g>
  </g>
</svg>
