<svg viewBox="0 0 38 38" xmlns="http://www.w3.org/2000/svg"><g fill="none" fill-rule="evenodd"><path stroke="currentColor" d="M36.813 18.732 18.788 36.757.763 18.732 18.788.707z"/><path d="M14.593 23.358a35.2 35.2 0 0 1 2.9-4.648c-.938-1.424-1.9-3.091-2.749-4.537l.519-.442a64.154 64.154 0 0 0 4.42 4.979 51.391 51.391 0 0 0-4.571 5.034l-.519-.386Zm4.957 0a41 41 0 0 1 2.849-4.648c-.983-1.535-2-3.058-2.771-4.537l.541-.442a43.056 43.056 0 0 0 4.57 4.979 41.951 41.951 0 0 0-4.648 5.034l-.541-.386Z" fill="currentColor" fill-rule="nonzero"/></g></svg>
