<svg xmlns="http://www.w3.org/2000/svg" viewBox="0 0 34.414 34.414"><g data-name="Ebene 2"><g data-name="Ebene 1" fill="none" stroke="currentColor"><path data-name="Rechteck 115" d="m.707 17.207 16.5-16.5 16.5 16.5-16.5 16.5z"/><path data-name="Pfad 20" d="M11.25 14.058v.34a7.65 7.65 0 0 0 .93 2.49 14.25 14.25 0 0 0 4.87 5 8.53 8.53 0 0 0 2.78 1.17 1.16 1.16 0 0 0 1-.19 15.43 15.43 0 0 0 1.81-1.53 2.67 2.67 0 0 0 .38-.44.3.3 0 0 0 0-.47 1.81 1.81 0 0 0-.3-.25c-.47-.31-.95-.62-1.43-.91a9.4 9.4 0 0 0-1.05-.53.4.4 0 0 0-.53.1c-.07.09-.15.17-.23.26s-.28.34-.43.5a.441.441 0 0 1-.59.14 6.2 6.2 0 0 1-3.89-4.06.14.14 0 0 1 0-.17l.77-.69c.38-.33.4-.41.19-.86a16.64 16.64 0 0 0-1.45-2.4 1.34 1.34 0 0 0-.2-.21.29.29 0 0 0-.42 0 1.12 1.12 0 0 0-.24.19c-.3.3-.62.6-.89.93s-.68.89-1 1.34a1.22 1.22 0 0 0-.08.25Z" stroke-width=".8"/><path data-name="Pfad 21" d="M11.25 14.057a1.22 1.22 0 0 1 .11-.24c.33-.45.66-.91 1-1.34a9.023 9.023 0 0 1 .89-.93 1.12 1.12 0 0 1 .24-.19.29.29 0 0 1 .42 0 1.34 1.34 0 0 1 .2.21 16.64 16.64 0 0 1 1.45 2.4c.21.45.19.53-.19.86l-.77.69a.14.14 0 0 0 0 .17 6.2 6.2 0 0 0 3.86 4.09c.34.12.35.12.59-.14s.29-.34.43-.5.16-.17.23-.26a.4.4 0 0 1 .53-.1c.35.17.71.33 1.05.53s1 .6 1.43.91a1.81 1.81 0 0 1 .3.25.3.3 0 0 1 0 .47 2.67 2.67 0 0 1-.38.44 15.431 15.431 0 0 1-1.81 1.53 1.16 1.16 0 0 1-1 .19 8.53 8.53 0 0 1-2.78-1.17 14.25 14.25 0 0 1-4.87-5 7.65 7.65 0 0 1-.93-2.49.972.972 0 0 0 0-.38Z" stroke-width=".8"/><path data-name="Pfad 22" d="M22.723 16.824a5.27 5.27 0 0 0-5.1-5.09" stroke-width=".8"/><path data-name="Pfad 23" d="M20.622 16.805a3.17 3.17 0 0 0-.88-2.07 3.13 3.13 0 0 0-2.13-.93" stroke-width=".8"/></g></g></svg>
